/* XPM */
static char * bottom_left_inactive_xpm[] = {
"20 5 4 1",
" 	c None",
".	c #525252",
"+	c #DEDEDE",
"@	c #DED6DE",
".+@+++++++++++++++++",
".+++++++++++++++++++",
".+++++++++++++++++++",
".+++++++++++++++++++",
"...................."};
