/* XPM */
static char * bottom_right_inactive_xpm[] = {
"20 5 4 1",
" 	c None",
".	c #DEDEDE",
"+	c #DED6DE",
"@	c #525252",
".................+.@",
"...................@",
"...................@",
"...................@",
"@@@@@@@@@@@@@@@@@@@@"};
