/* XPM */
static char * bottom_inactive_xpm[] = {
"32 5 3 1",
" 	c None",
".	c #DEDEDE",
"+	c #525252",
"................................",
"................................",
"................................",
"................................",
"++++++++++++++++++++++++++++++++"};
