/* XPM */
static char * close_pressed_xpm[] = {
"15 15 13 1",
" 	c None",
".	c #CECECE",
"+	c #8C8C8C",
"@	c #212121",
"#	c #FFFFFF",
"$	c #ACACAC",
"%	c #8B8B8B",
"&	c #696969",
"*	c #757575",
"=	c #7F7F7F",
"-	c #5E5E5E",
";	c #969696",
">	c #A1A1A1",
"...............",
".++++++++++++..",
".+@@@@@@@@@@@#.",
".+@$%%%%%%%%@#.",
".+@%&&**==%-@#.",
".+@%&**==%%-@#.",
".+@%**==%%;-@#.",
".+@%*==%%;;-@#.",
".+@%==%%;;>-@#.",
".+@%=%%;;>>-@#.",
".+@%%%;;>>$-@#.",
".+@%--------@#.",
".+@@@@@@@@@@@#.",
"..############.",
"..............."};
