/* XPM */
static char * hide_active_xpm[] = {
"15 15 41 1",
" 	c None",
".	c #CECECE",
"+	c #8C8C8C",
"@	c #212121",
"#	c #1D1D1D",
"$	c #1B1B1B",
"%	c #1E1E1E",
"&	c #FFFFFF",
"*	c #BCBCBC",
"=	c #C1C1C1",
"-	c #C2C2C2",
";	c #C3C3C3",
">	c #C5C5C5",
",	c #CCCCCC",
"'	c #1C1C1C",
")	c #BDBDBD",
"!	c #7D7D7D",
"~	c #828282",
"{	c #999999",
"]	c #979797",
"^	c #A2A2A2",
"/	c #747474",
"(	c #B9B9B9",
"_	c #737373",
":	c #8E8E8E",
"<	c #969696",
"[	c #AAAAAA",
"}	c #6B6B6B",
"|	c #B5B5B5",
"1	c #949494",
"2	c #A1A1A1",
"3	c #696969",
"4	c #DEDEDE",
"5	c #B6B6B6",
"6	c #9A9A9A",
"7	c #A6A6A6",
"8	c #C0C0C0",
"9	c #AFAFAF",
"0	c #7F7F7F",
"a	c #EFEFEF",
"b	c #808080",
"...............",
".++++++++++++..",
".+@#$#%%%%#@@&.",
".+$&*=---;>,@&.",
".+')!~{]^/&+@&.",
".+@(_:<[}&.+@&.",
".+@|]123&.4+@&.",
".+@567_&.44+@&.",
".+@890&.44a+@&.",
".+@>b&.44aa+@&.",
".+@,&.44aa&+@&.",
".+@.++++++++@&.",
".+@@@@@@@@@@@&.",
"..&&&&&&&&&&&&.",
"..............."};
