/* XPM */
static char * hide_pressed_xpm[] = {
"15 15 13 1",
" 	c None",
".	c #CECECE",
"+	c #8C8C8C",
"@	c #212121",
"#	c #FFFFFF",
"$	c #989898",
"%	c #7B7B7B",
"&	c #5D5D5D",
"*	c #676767",
"=	c #717171",
"-	c #545454",
";	c #858585",
">	c #8F8F8F",
"...............",
".++++++++++++..",
".+@@@@@@@@@@@#.",
".+@$%%%%%%%%@#.",
".+@%&&**=-$-@#.",
".+@%&**=-$%-@#.",
".+@%**=-$%;-@#.",
".+@%*=-$%;;-@#.",
".+@%=-$%;;>-@#.",
".+@%-$%;;>>-@#.",
".+@%$%;;>>$-@#.",
".+@%--------@#.",
".+@@@@@@@@@@@#.",
"..############.",
"..............."};
