/* XPM */
static char * left_inactive_xpm[] = {
"5 25 4 1",
" 	c None",
".	c #525252",
"+	c #DEDEDE",
"@	c #DED6DE",
".++++",
".++++",
".++++",
".++++",
".++++",
".++++",
".++++",
".++++",
".++++",
".++++",
".++++",
".++++",
".++++",
".++++",
".++++",
".++++",
".++++",
".++++",
".++@+",
".++++",
".++++",
".++++",
".++++",
".++++",
".++++"};
