/* XPM */
static char * left_active_xpm[] = {
"5 25 5 1",
" 	c None",
".	c #000000",
"+	c #FFFFFF",
"@	c #CECECE",
"#	c #9C9C9C",
".+@@#",
".+@@#",
".+@@#",
".+@@#",
".+@@#",
".+@@#",
".+@@#",
".+@@#",
".+@@#",
".+@@#",
".+@@#",
".+@@#",
".+@@#",
".+@@#",
".+@@#",
".+@@#",
".+@@#",
".+@@#",
".+@@#",
".+@@#",
".+@@#",
".+@@#",
".+@@#",
".+@@#",
".+@@#"};
