/* XPM */
static char * maximize_pressed_xpm[] = {
"15 15 15 1",
" 	c None",
".	c #CECECE",
"+	c #8C8C8C",
"@	c #212121",
"#	c #FFFFFF",
"$	c #8E8E8E",
"%	c #737373",
"&	c #121212",
"*	c #575757",
"=	c #606060",
"-	c #696969",
";	c #4E4E4E",
">	c #7C7C7C",
",	c #CEC6CE",
"'	c #858585",
"...............",
".++++++++++++..",
".+@@@@@@@@@@@#.",
".+@$%%%%&%%%@#.",
".+@%**==&-%;@#.",
".+@%*==-&%%;@#.",
".+@%==--&%>;@#.",
".+@%=--%&>>;@#,",
".+@&&&&&&>';@#.",
".+@%-%%>>'';@#.",
".+@%%%>>''$;@#.",
".+@%;;;;;;;;@#.",
".+@@@@@@@@@@@#.",
"..############.",
"..............."};
