/* XPM */
static char * menu_pressed_xpm[] = {
"15 15 13 1",
" 	c None",
".	c #CECECE",
"+	c #8C8C8C",
"@	c #212121",
"#	c #FFFFFF",
"$	c #969696",
"%	c #797979",
"&	c #5C5C5C",
"*	c #666666",
"=	c #6F6F6F",
"-	c #525252",
";	c #828282",
">	c #3D3D3D",
"...............",
".++++++++++++..",
".+@@@@@@@@@@@#.",
".+@$%%%%%%%%@#.",
".+@%&&**==%-@#.",
".+@%&;;;;-%-@#.",
".+@%&;;;->;-@#.",
".+@%*;;->>;-@#.",
".+@%*;->>>;-@#.",
".+@%=->>>>+-@#.",
".+@%%%;;++$-@#.",
".+@%--------@#.",
".+@@@@@@@@@@@#.",
"..############.",
"..............."};
