/* XPM */
static char * right_inactive_xpm[] = {
"5 25 4 1",
" 	c None",
".	c #DEDEDE",
"+	c #525252",
"@	c #DED6DE",
"....+",
"....+",
"....+",
"....+",
"....+",
"....+",
"....+",
"....+",
"....+",
"....+",
"....+",
"....+",
"....+",
"....+",
"....+",
"....+",
"....+",
"....+",
".@..+",
"....+",
"....+",
"....+",
"....+",
"....+",
"....+"};
