/* XPM */
static char * right_active_xpm[] = {
"5 25 5 1",
" 	c None",
".	c #FFFFFF",
"+	c #CECECE",
"@	c #9C9C9C",
"#	c #000000",
".++@#",
".++@#",
".++@#",
".++@#",
".++@#",
".++@#",
".++@#",
".++@#",
".++@#",
".++@#",
".++@#",
".++@#",
".++@#",
".++@#",
".++@#",
".++@#",
".++@#",
".++@#",
".++@#",
".++@#",
".++@#",
".++@#",
".++@#",
".++@#",
".++@#"};
