/* XPM */
static char * shade_pressed_xpm[] = {
"15 15 14 1",
" 	c None",
".	c #CECECE",
"+	c #8C8C8C",
"@	c #212121",
"#	c #FFFFFF",
"$	c #808080",
"%	c #676767",
"&	c #4E4E4E",
"*	c #575757",
"=	c #5F5F5F",
"-	c #464646",
";	c #111111",
">	c #6F6F6F",
",	c #787878",
"...............",
".++++++++++++..",
".+@@@@@@@@@@@#.",
".+@$%%%%%%%%@#.",
".+@%&&**==%-@#.",
".+@%&**==%%-@#.",
".+@;;;;;;;;;@#.",
".+@%*==%%>>-@#.",
".+@;;;;;;;;;@#.",
".+@%=%%>>,,-@#.",
".+@%%%>>,,$-@#.",
".+@%--------@#.",
".+@@@@@@@@@@@#.",
"..############.",
"..............."};
