/* XPM */
static char * title_1_inactive_xpm[] = {
"4 22 4 1",
" 	c None",
".	c #525252",
"+	c #DEDEDE",
"@	c #C9C9C9",
"....",
"++++",
"++++",
"++++",
"++++",
"++++",
"++++",
"++++",
"++++",
"++++",
"++++",
"++++",
"++++",
"++++",
"++++",
"++++",
"++++",
"++++",
"++++",
"++++",
"++++",
"@@@@"};
