/* XPM */
static char * top_right_inactive_xpm[] = {
"4 22 3 1",
" 	c None",
".	c #525252",
"+	c #DEDEDE",
"....",
"+++.",
"+++.",
"+++.",
"+++.",
"+++.",
"+++.",
"+++.",
"+++.",
"+++.",
"+++.",
"+++.",
"+++.",
"+++.",
"+++.",
"+++.",
"+++.",
"+++.",
"+++.",
"+++.",
"+++.",
"+++."};
