/* XPM */
static char * top_left_active_xpm[] = {
"4 22 4 1",
" 	c None",
".	c #000000",
"+	c #FFFFFF",
"@	c #CECECE",
"....",
".+++",
".+@@",
".+@@",
".+@@",
".+@@",
".+@@",
".+@@",
".+@@",
".+@@",
".+@@",
".+@@",
".+@@",
".+@@",
".+@@",
".+@@",
".+@@",
".+@@",
".+@@",
".+@@",
".+@@",
".+@@"};
